<svg id="Layer_1" data-name="Layer 1" xmlns="http://www.w3.org/2000/svg" viewBox="0 0 320.5 63.26"><title>Asana logo - Brandlogos.net</title><path d="M525.43,382.82c.19,2.21,2,5,5,5h1.79a1.27,1.27,0,0,0,1.26-1.26V347.2h0a1.26,1.26,0,0,0-1.26-1.19h-5.55a1.26,1.26,0,0,0-1.26,1.19h0v3.2c-3.4-4.19-8.76-5.93-14.13-5.93a22.12,22.12,0,0,0-22.12,22.13h0a22.13,22.13,0,0,0,22.11,22.14h0c5.37,0,11.23-2.09,14.13-5.93h0ZM511.32,381a14.39,14.39,0,1,1,14.07-14.39A14.23,14.23,0,0,1,511.32,381Zm-29.15,3.18V363.8c0-11.49-7.24-19.23-18.78-19.23-5.51,0-10,3.19-11.63,5.93-.35-2.14-1.48-4.39-5-4.39H445a1.27,1.27,0,0,0-1.26,1.26v39.38h0a1.26,1.26,0,0,0,1.26,1.19h5.55l.25,0,.11,0,.12,0,.14-.08.07,0,.15-.12,0,0a1.25,1.25,0,0,0,.39-.84h0V363.48a11.16,11.16,0,1,1,22.32,0v19.44h0v3.82h0a1.26,1.26,0,0,0,1.26,1.19h5.55l.25,0,.1,0,.14,0,.13-.07.08,0,.14-.12,0,0,.14-.16h0a1.25,1.25,0,0,0,.24-.66h0v-2.57Zm-57.77-1.35c.19,2.21,2,5,5,5h1.79a1.27,1.27,0,0,0,1.26-1.26V347.2h0A1.26,1.26,0,0,0,431.2,346h-5.55a1.26,1.26,0,0,0-1.26,1.19h0v3.2c-3.4-4.19-8.76-5.93-14.13-5.93a22.12,22.12,0,0,0-22.11,22.13h0a22.13,22.13,0,0,0,22.11,22.14c5.38,0,11.23-2.09,14.13-5.93ZM410.28,381a14.39,14.39,0,1,1,14.06-14.39A14.23,14.23,0,0,1,410.28,381Zm-54.94-3.81A20.44,20.44,0,0,0,367,381c3.7,0,7.53-1.92,7.53-5.26,0-4.46-8.34-5.16-13.58-6.94s-9.75-5.46-9.75-11.43c0-9.13,8.13-12.9,15.71-12.9a23.65,23.65,0,0,1,13,3.86,1.29,1.29,0,0,1,.43,1.8l-3.07,4.39a1.23,1.23,0,0,1-1.81.38,15.28,15.28,0,0,0-8.53-2.68c-4.63,0-7.42,2.14-7.42,4.79,0,3.17,3.62,4.18,7.87,5.26,7.39,2,15.46,4.39,15.46,13.46,0,8-7.51,13-15.82,13a26.57,26.57,0,0,1-16.15-5.1,1.37,1.37,0,0,1-.28-1.81l3.05-4.36A1.22,1.22,0,0,1,355.34,377.18ZM334,382.82c.2,2.21,2,5,5,5h1.79a1.27,1.27,0,0,0,1.26-1.26V347.2h0a1.26,1.26,0,0,0-1.26-1.19h-5.55A1.26,1.26,0,0,0,334,347.2h0v3.2c-3.4-4.19-8.76-5.93-14.13-5.93a22.13,22.13,0,0,0,0,44.27c5.37,0,11.23-2.09,14.13-5.93ZM319.9,381A14.39,14.39,0,1,1,334,366.61,14.23,14.23,0,0,1,319.9,381Z" transform="translate(-213 -334.62)" style="fill:#0d0e10"/><path d="M266.76,368.11A14.88,14.88,0,1,0,281.64,383,14.88,14.88,0,0,0,266.76,368.11Zm-38.67,0a14.88,14.88,0,1,0-.41,29.76h.41a14.88,14.88,0,0,0,0-29.76Zm34.22-18.61a14.88,14.88,0,1,1-14.88-14.88A14.88,14.88,0,0,1,262.31,349.51Z" transform="translate(-213 -334.62)" style="fill:#f06a6a"/></svg>